# xmcd
#
# Track frame offsets:
# 150
# 2055
# 18058
# 29312
# 46530
# 62796
# 77531
# 98710
# 114733
# 131446
# 154800
# 169227
#
# Disc length: 2538 seconds
#
#
# Revision: 0
# Processed by: cddbd v1.5.2PL0 Copyright (c) Steve Scherf et al.
# Submitted via: FreeRIP 2.951 
#
DISCID=8409e80c
DTITLE=John Wilks Band - Cold Northern Town
DYEAR=2005
DGENRE=
TTITLE0=Intro
TTITLE1=Christina
TTITLE2=Rise With The Sun
TTITLE3=Cowboy Boots
TTITLE4=Goodbye (My Friend)
TTITLE5=Cold Northern Town
TTITLE6=Sisters
TTITLE7=People Get Ready
TTITLE8=Universal Truth
TTITLE9=Ivan Rabbitskin
TTITLE10=What If
TTITLE11=All You Have To Know
EXTD=
EXTT0=
EXTT1=
EXTT2=
EXTT3=
EXTT4=
EXTT5=
EXTT6=
EXTT7=
EXTT8=
EXTT9=
EXTT10=
EXTT11=
PLAYORDER=
